<svg width="122" height="123" version="1.1" xmlns="http://www.w3.org/2000/svg" desc="Created with imagetracer.js version 1.2.6" ><path fill="rgb(19,42,84)" stroke="rgb(19,42,84)" stroke-width="1" opacity="1" d="M 37.5 5 L 38 6.5 L 35 8.5 L 37.5 5 Z " /><path fill="rgb(19,42,84)" stroke="rgb(19,42,84)" stroke-width="1" opacity="1" d="M 39.5 6 L 40.5 8 Q 37.7 8.7 39.5 6 Z " /><path fill="rgb(19,42,84)" stroke="rgb(19,42,84)" stroke-width="1" opacity="1" d="M 5 7 L 8 8.5 L 7.5 10 L 5.5 9 L 2.5 14 L 2 12.5 L 5 7 Z " /><path fill="rgb(19,42,84)" stroke="rgb(19,42,84)" stroke-width="1" opacity="1" d="M 115.5 8 L 114.5 10 L 115.5 8 Z " /><path fill="rgb(19,42,84)" stroke="rgb(19,42,84)" stroke-width="1" opacity="1" d="M 49.5 9 L 53 9.5 Q 51.7 12.3 50.5 10 L 49.5 9 Z " /><path fill="rgb(19,42,84)" stroke="rgb(19,42,84)" stroke-width="1" opacity="1" d="M 53.5 12 L 58 16.5 L 58 18.5 L 57 18.5 Q 57.8 16.3 55.5 17 L 55.5 15 Q 53.3 15.8 54 13.5 L 53.5 12 Z " /><path fill="rgb(19,42,84)" stroke="rgb(19,42,84)" stroke-width="1" opacity="1" d="M 27.5 13 L 28 14.5 L 26.5 17 L 26 14.5 L 27.5 13 Z " /><path fill="rgb(19,42,84)" stroke="rgb(19,42,84)" stroke-width="1" opacity="1" d="M 2.5 15 L 3 113.5 L 4 114.5 L 2 115.5 L 2.5 15 Z " /><path fill="rgb(19,42,84)" stroke="rgb(19,42,84)" stroke-width="1" opacity="1" d="M 23 21 L 25 21.5 L 23.5 25 L 23 21 Z " /><path fill="rgb(19,42,84)" stroke="rgb(19,42,84)" stroke-width="1" opacity="1" d="M 57.5 21 Q 60 22 59 26.5 L 58 26.5 L 57.5 21 Z " /><path fill="rgb(19,42,84)" stroke="rgb(19,42,84)" stroke-width="1" opacity="1" d="M 23.5 26 L 24 29.5 L 23 29.5 L 23.5 26 Z " /><path fill="rgb(19,42,84)" stroke="rgb(19,42,84)" stroke-width="1" opacity="1" d="M 24.5 31 L 24.5 33 L 26 33.5 L 24 34.5 L 23 32.5 L 24.5 31 Z " /><path fill="rgb(19,42,84)" stroke="rgb(19,42,84)" stroke-width="1" opacity="1" d="M 54.5 35 L 55 37 L 52.5 38 L 54.5 35 Z " /><path fill="rgb(19,42,84)" stroke="rgb(19,42,84)" stroke-width="1" opacity="1" d="M 28.5 36 L 31.5 40 L 28.5 36 Z " /><path fill="rgb(19,42,84)" stroke="rgb(19,42,84)" stroke-width="1" opacity="1" d="M 26.5 40 Q 27.8 42.3 32.5 41 L 36.5 41 L 38 41.5 L 36.5 42 L 34.5 42 L 25.5 43 L 24 42.5 L 24 88.5 L 25 89.5 L 23 90 L 23 41.5 L 24.5 41 L 26.5 42 L 26.5 40 Z " /><path fill="rgb(19,42,84)" stroke="rgb(19,42,84)" stroke-width="1" opacity="1" d="M 54.5 40 L 55.5 42 L 56 40 L 58 40.5 L 57.5 43 L 47.5 42 L 45.5 42 L 44 41.5 L 53.5 41 L 54.5 40 Z " /><path fill="rgb(19,42,84)" stroke="rgb(19,42,84)" stroke-width="1" opacity="1" d="M 65.5 40 L 67.5 41 Q 69 38.5 70.5 42 L 73 40.5 L 72 43 L 68.5 42 L 65.5 43 L 65.5 42 L 67 41.5 L 65.5 40 Z " /><path fill="rgb(19,42,84)" stroke="rgb(19,42,84)" stroke-width="1" opacity="1" d="M 39.5 42 L 43 42.5 L 39.5 43 L 39.5 42 Z " /><path fill="rgb(19,42,84)" stroke="rgb(19,42,84)" stroke-width="1" opacity="1" d="M 74.5 43 L 78 44.5 L 75.5 45 L 74.5 43 Z " /><path fill="rgb(19,42,84)" stroke="rgb(19,42,84)" stroke-width="1" opacity="1" d="M 82.5 45 L 81.5 47 L 82.5 45 Z " /><path fill="rgb(19,42,84)" stroke="rgb(19,42,84)" stroke-width="1" opacity="1" d="M 58.5 46 L 59 73.5 L 58 73.5 L 58.5 46 Z " /><path fill="rgb(19,42,84)" stroke="rgb(19,42,84)" stroke-width="1" opacity="1" d="M 82.5 48 L 88 50.5 L 85.5 51 L 82.5 48 Z " /><path fill="rgb(19,42,84)" stroke="rgb(19,42,84)" stroke-width="1" opacity="1" d="M 89.5 54 L 92 55.5 L 90 56.5 L 89.5 54 Z " /><path fill="rgb(19,42,84)" stroke="rgb(19,42,84)" stroke-width="1" opacity="1" d="M 92.5 57 Q 95.5 58.5 92.5 60 L 92.5 57 Z " /><path fill="rgb(19,42,84)" stroke="rgb(19,42,84)" stroke-width="1" opacity="1" d="M 61.5 59 L 62 64.5 L 61 64.5 L 61.5 59 Z " /><path fill="rgb(19,42,84)" stroke="rgb(19,42,84)" stroke-width="1" opacity="1" d="M 114.5 60 L 115 64.5 L 114 64.5 L 114.5 60 Z " /><path fill="rgb(19,42,84)" stroke="rgb(19,42,84)" stroke-width="1" opacity="1" d="M 96.5 62 L 97 63.5 L 97 65.5 L 96.5 69 L 94 63.5 L 96 63.5 L 96.5 62 Z " /><path fill="rgb(19,42,84)" stroke="rgb(19,42,84)" stroke-width="1" opacity="1" d="M 96.5 72 Q 99.2 73.3 97 74.5 L 96.5 116 L 96 74.5 L 96.5 72 Z " /><path fill="rgb(19,42,84)" stroke="rgb(19,42,84)" stroke-width="1" opacity="1" d="M 58.5 80 L 59 114.5 L 58 114.5 L 58.5 80 Z " /><path fill="rgb(19,42,84)" stroke="rgb(19,42,84)" stroke-width="1" opacity="1" d="M 61.5 89 L 62 94.5 L 61 94.5 L 61.5 89 Z " /><path fill="rgb(19,42,84)" stroke="rgb(19,42,84)" stroke-width="1" opacity="1" d="M 23 92 Q 26 91 25 94 Q 22 95 23 92 Z " /><path fill="rgb(19,42,84)" stroke="rgb(19,42,84)" stroke-width="1" opacity="1" d="M 29.5 104 L 34 109.5 L 29 109.5 Q 33 107.5 29 105.5 L 29.5 104 Z " /><path fill="rgb(19,42,84)" stroke="rgb(19,42,84)" stroke-width="1" opacity="1" d="M 40.5 113 L 41.5 115 Q 38.7 115.7 40.5 113 Z " /><path fill="rgb(19,42,84)" stroke="rgb(19,42,84)" stroke-width="1" opacity="1" d="M 6.5 115 L 7.5 117 L 5 116.5 L 6.5 115 Z " /><path fill="rgb(19,42,84)" stroke="rgb(19,42,84)" stroke-width="1" opacity="1" d="M 61.5 115 L 63 117.5 L 61 116.5 L 61.5 115 Z " /><path fill="rgb(19,42,84)" stroke="rgb(19,42,84)" stroke-width="1" opacity="1" d="M 113.5 116 L 115 118.5 L 113 117.5 L 113.5 116 Z " /><path fill="rgb(19,42,84)" stroke="rgb(19,42,84)" stroke-width="1" opacity="1" d="M 5.5 118 L 8 118.5 Q 5.9 121.8 5.5 118 Z " /><path fill="rgb(19,42,84)" stroke="rgb(19,42,84)" stroke-width="1" opacity="1" d="M 50.5 118 Q 57.5 116.5 57 119.5 L 53.5 119 L 49.5 120 L 50.5 118 Z " /><path fill="rgb(19,42,84)" stroke="rgb(19,42,84)" stroke-width="1" opacity="1" d="M 64.5 118 L 66.5 119 L 67.5 118 L 94.5 118 L 93.5 120 L 92.5 119 L 84.5 119 L 82.5 120 L 81.5 119 L 69.5 119 L 65.5 120 L 64.5 118 Z " /><path fill="rgb(116,134,164)" stroke="rgb(116,134,164)" stroke-width="1" opacity="1" d="M 38.5 9 L 44 9.5 L 38.5 10 L 38.5 9 Z " /><path fill="rgb(116,134,164)" stroke="rgb(116,134,164)" stroke-width="1" opacity="1" d="M 119.5 13 L 120 112.5 L 119 112.5 L 119.5 13 Z " /><path fill="rgb(116,134,164)" stroke="rgb(116,134,164)" stroke-width="1" opacity="1" d="M 52.5 14 L 53.5 16 L 52.5 14 Z " /><path fill="rgb(116,134,164)" stroke="rgb(116,134,164)" stroke-width="1" opacity="1" d="M 29.5 35 L 30.5 37 L 29.5 35 Z " /><path fill="rgb(116,134,164)" stroke="rgb(116,134,164)" stroke-width="1" opacity="1" d="M 39.5 40 L 43 40.5 L 39.5 41 L 39.5 40 Z " /><path fill="rgb(116,134,164)" stroke="rgb(116,134,164)" stroke-width="1" opacity="1" d="M 56.5 44 L 57 115.5 Q 56 118 51.5 117 L 51.5 116 Q 56 116.5 56 115.5 L 56.5 44 Z " /><path fill="rgb(116,134,164)" stroke="rgb(116,134,164)" stroke-width="1" opacity="1" d="M 25.5 45 L 26 88.5 L 25 88.5 L 25.5 45 Z " /><path fill="rgb(116,134,164)" stroke="rgb(116,134,164)" stroke-width="1" opacity="1" d="M 84.5 51 L 86.5 54 L 84.5 51 Z " /><path fill="rgb(116,134,164)" stroke="rgb(116,134,164)" stroke-width="1" opacity="1" d="M 94.5 70 L 95 115.5 L 93.5 117 L 64.5 117 L 64.5 116 L 94 116 L 94.5 70 Z " /><path fill="rgb(116,134,164)" stroke="rgb(116,134,164)" stroke-width="1" opacity="1" d="M 32.5 105 L 37.5 111 L 32.5 105 Z " /><path fill="rgb(116,134,164)" stroke="rgb(116,134,164)" stroke-width="1" opacity="1" d="M 39.5 111 L 40.5 113 L 39.5 111 Z " /><path fill="rgb(54,72,111)" stroke="rgb(54,72,111)" stroke-width="1" opacity="1" d="M 8.5 4 L 11 4.5 L 8.5 5 L 8.5 4 Z " /><path fill="rgb(54,72,111)" stroke="rgb(54,72,111)" stroke-width="1" opacity="1" d="M 12.5 4 L 112 4.5 L 12.5 5 L 12.5 4 Z " /><path fill="rgb(54,72,111)" stroke="rgb(54,72,111)" stroke-width="1" opacity="1" d="M 5.5 5 L 3.5 8 L 5.5 5 Z " /><path fill="rgb(54,72,111)" stroke="rgb(54,72,111)" stroke-width="1" opacity="1" d="M 114.5 5 L 117.5 9 L 114.5 5 Z " /><path fill="rgb(54,72,111)" stroke="rgb(54,72,111)" stroke-width="1" opacity="1" d="M 33.5 10 L 32.5 12 L 33.5 10 Z " /><path fill="rgb(54,72,111)" stroke="rgb(54,72,111)" stroke-width="1" opacity="1" d="M 48.5 10 L 49.5 12 L 48.5 10 Z " /><path fill="rgb(54,72,111)" stroke="rgb(54,72,111)" stroke-width="1" opacity="1" d="M 1.5 11 L 2 114.5 L 1 114.5 L 1.5 11 Z " /><path fill="rgb(54,72,111)" stroke="rgb(54,72,111)" stroke-width="1" opacity="1" d="M 30.5 12 L 28.5 15 L 30.5 12 Z " /><path fill="rgb(54,72,111)" stroke="rgb(54,72,111)" stroke-width="1" opacity="1" d="M 56.5 27 L 57 29.5 L 56 29.5 L 56.5 27 Z " /><path fill="rgb(54,72,111)" stroke="rgb(54,72,111)" stroke-width="1" opacity="1" d="M 27.5 33 L 28.5 35 L 27.5 33 Z " /><path fill="rgb(54,72,111)" stroke="rgb(54,72,111)" stroke-width="1" opacity="1" d="M 54.5 33 L 49.5 39 L 54.5 33 Z " /><path fill="rgb(54,72,111)" stroke="rgb(54,72,111)" stroke-width="1" opacity="1" d="M 31.5 37 L 32.5 39 L 31.5 37 Z " /><path fill="rgb(54,72,111)" stroke="rgb(54,72,111)" stroke-width="1" opacity="1" d="M 26.5 43 L 56 43.5 L 26.5 44 L 25.5 45 L 26.5 43 Z " /><path fill="rgb(54,72,111)" stroke="rgb(54,72,111)" stroke-width="1" opacity="1" d="M 64.5 43 L 68 43.5 L 64 44 L 63.5 117 L 63 44.5 L 64.5 43 Z " /><path fill="rgb(54,72,111)" stroke="rgb(54,72,111)" stroke-width="1" opacity="1" d="M 82.5 49 L 83.5 51 L 82.5 49 Z " /><path fill="rgb(54,72,111)" stroke="rgb(54,72,111)" stroke-width="1" opacity="1" d="M 87.5 54 L 88.5 56 L 87.5 54 Z " /><path fill="rgb(54,72,111)" stroke="rgb(54,72,111)" stroke-width="1" opacity="1" d="M 25.5 89 L 26 91.5 L 25 91.5 L 25.5 89 Z " /><path fill="rgb(54,72,111)" stroke="rgb(54,72,111)" stroke-width="1" opacity="1" d="M 30.5 103 L 31.5 105 L 30.5 103 Z " /><path fill="rgb(54,72,111)" stroke="rgb(54,72,111)" stroke-width="1" opacity="1" d="M 117.5 117 L 116.5 119 L 117.5 117 Z " /><path fill="rgb(54,72,111)" stroke="rgb(54,72,111)" stroke-width="1" opacity="1" d="M 3.5 118 L 4.5 120 L 3.5 118 Z " /><path fill="rgb(54,72,111)" stroke="rgb(54,72,111)" stroke-width="1" opacity="1" d="M 8.5 121 L 112 121.5 L 8.5 122 L 8.5 121 Z " /><path fill="rgb(252,252,251)" stroke="rgb(252,252,251)" stroke-width="1" opacity="1" d="M 15.5 0 L 25.5 0 L 26.5 1 L 107.5 1 L 109.5 2 L 111.5 2 L 115 3.5 L 113.5 3 L 6.5 3 L 2.5 6 L 5.5 2 L 15.5 0 Z " /><path fill="rgb(252,252,251)" stroke="rgb(252,252,251)" stroke-width="1" opacity="1" d="M 116.5 4 L 119 5.5 L 118.5 7 L 116.5 4 Z " /><path fill="rgb(252,252,251)" stroke="rgb(252,252,251)" stroke-width="1" opacity="1" d="M 0.5 6 Q 3.5 7.5 0.5 9 L 0.5 6 Z " /><path fill="rgb(252,252,251)" stroke="rgb(252,252,251)" stroke-width="1" opacity="1" d="M 120.5 7 L 122 13.5 L 121 13.5 L 119 8.5 L 120.5 7 Z " /><path fill="rgb(252,252,251)" stroke="rgb(252,252,251)" stroke-width="1" opacity="1" d="M 37.5 10 L 44.5 10 L 53 16.5 Q 56.5 20.5 55 29.5 L 50.5 36 Q 46.7 40.2 37.5 39 L 32 37 L 32 35 Q 29.3 36.1 30 33.5 Q 25.1 30.4 27 20.5 L 33.5 12 L 37.5 10 Z M 39 11 Q 41 17 34 15 L 34 20 L 29 19 L 28 23 L 29 25 L 28 29 Q 29 31 34 30 L 33 33 L 35 35 L 48 35 Q 46 28 53 30 L 53 20 L 48 20 L 50 19 L 49 18 L 49 15 L 43 15 L 43 11 L 39 11 Z " /><path fill="rgb(252,252,251)" stroke="rgb(252,252,251)" stroke-width="1" opacity="1" d="M 121.5 15 L 122 117.5 L 121 119.5 L 122 123 L 117.5 122 L 114.5 123 L 114.5 122 Q 117.8 123.1 117 120.5 L 121 113.5 L 121.5 15 Z " /><path fill="rgb(252,252,251)" stroke="rgb(252,252,251)" stroke-width="1" opacity="1" d="M 27.5 45 L 28 87.5 L 29 89.5 L 27.5 93 L 27.5 45 Z " /><path fill="rgb(252,252,251)" stroke="rgb(252,252,251)" stroke-width="1" opacity="1" d="M 53 45 L 55 45.5 L 55 55 L 53 54.5 L 53 45 Z " /><path fill="rgb(252,252,251)" stroke="rgb(252,252,251)" stroke-width="1" opacity="1" d="M 65 45 L 75.5 47 L 84 52 Q 82.9 54.7 85.5 54 Q 92.1 59.7 93 70 L 88 70 L 88 60 L 83 60 L 83 55 L 80.5 55 L 78 54.5 L 78 50 L 68 50 L 68 113.5 L 69.5 115 L 93 115 L 93 72.5 L 94 72.5 L 94 114.5 L 92.5 116 L 68.5 116 L 65 115 L 65 45 Z " /><path fill="rgb(252,252,251)" stroke="rgb(252,252,251)" stroke-width="1" opacity="1" d="M 54.5 59 L 55 94.5 L 53.5 100 L 53 69.5 L 54 68.5 L 54.5 59 Z " /><path fill="rgb(252,252,251)" stroke="rgb(252,252,251)" stroke-width="1" opacity="1" d="M 28.5 94 L 34 95 L 33 97.5 L 34 98.5 L 34 105 L 39 105 L 39 109.5 L 37 108.5 Q 37.8 106.3 35.5 107 Q 32.3 105.8 33 102 Q 30.3 103.1 31 100.5 L 28 95.5 L 28.5 94 Z " /><path fill="rgb(252,252,251)" stroke="rgb(252,252,251)" stroke-width="1" opacity="1" d="M 54.5 104 L 55 115.5 L 53 114.5 L 54 110.5 L 53 105.5 L 54.5 104 Z " /><path fill="rgb(252,252,251)" stroke="rgb(252,252,251)" stroke-width="1" opacity="1" d="M 40.5 110 L 49 110 L 49 113.5 L 49.5 115 Q 42.6 113.8 40.5 110 Z " /><path fill="rgb(252,252,251)" stroke="rgb(252,252,251)" stroke-width="1" opacity="1" d="M 0.5 117 L 3.5 121 L 7 122.5 L 4.5 123 L 2 122 L 0.5 117 Z " /><path fill="rgb(255,255,255)" stroke="rgb(255,255,255)" stroke-width="1" opacity="1" d="M 39 11 L 43 11 L 43 15 L 49 15 L 49 17.5 L 49.5 19 L 48 19.5 L 53 20 L 53 30 Q 45.5 27.5 48 35 L 34.5 35 L 33 32.5 L 34 30 Q 29.4 31.3 28 28.5 L 29 24.5 L 28 22.5 L 29 20 L 34 20 L 34 15 Q 41.1 17.4 39 11 Z " /><path fill="rgb(255,255,255)" stroke="rgb(255,255,255)" stroke-width="1" opacity="1" d="M 28 45 L 53 45 L 53 54.5 Q 56 53.5 55 58.5 L 53 69.5 L 53 99.5 L 54 99.5 L 54.5 95 L 55 103.5 Q 52 104.5 53 109.5 L 54 113.5 L 50.5 115 Q 48 113.8 49 110 L 39 110 Q 41.5 102.5 34 105 L 34 98.5 L 34 96.5 Q 34.9 93.1 29.5 95 L 28 92.5 L 29 89.5 L 28 87.5 L 28 45 Z " /><path fill="rgb(255,255,255)" stroke="rgb(255,255,255)" stroke-width="1" opacity="1" d="M 68 50 L 78 50 L 78 55 L 83 55 Q 80.5 62.5 88 60 L 88 70 L 93 70 L 93 115 L 69.5 115 L 68 113.5 L 68 50 Z " /><path fill="rgb(241,243,245)" stroke="rgb(241,243,245)" stroke-width="1" opacity="1" d="M 0 0 L 15 0.5 L 5.5 2 L 3 4.5 Q 5.2 5.8 2.5 7 L 0 5.5 L 0 0 Z " /><path fill="rgb(241,243,245)" stroke="rgb(241,243,245)" stroke-width="1" opacity="1" d="M 26.5 0 L 121.5 0 L 122 0.5 L 122 10.5 L 121 10.5 L 120.5 7 L 118.5 8 L 114.5 3 L 113 3.5 L 113.5 2 L 110.5 1 L 108.5 2 L 107.5 1 L 26.5 1 L 26.5 0 Z M 117 4 L 119 7 L 119 6 L 117 4 Z " /><path fill="rgb(241,243,245)" stroke="rgb(241,243,245)" stroke-width="1" opacity="1" d="M 34.5 11 L 37 12.5 L 35.5 12 L 34.5 11 Z " /><path fill="rgb(241,243,245)" stroke="rgb(241,243,245)" stroke-width="1" opacity="1" d="M 120.5 12 L 122 14.5 L 121 15.5 L 120.5 114 L 120.5 12 Z " /><path fill="rgb(241,243,245)" stroke="rgb(241,243,245)" stroke-width="1" opacity="1" d="M 31.5 13 L 29.5 16 L 31.5 13 Z " /><path fill="rgb(241,243,245)" stroke="rgb(241,243,245)" stroke-width="1" opacity="1" d="M 50.5 13 L 52.5 16 L 50.5 13 Z " /><path fill="rgb(241,243,245)" stroke="rgb(241,243,245)" stroke-width="1" opacity="1" d="M 28.5 17 L 28 18.5 L 27.5 20 L 27 18.5 L 28.5 17 Z " /><path fill="rgb(241,243,245)" stroke="rgb(241,243,245)" stroke-width="1" opacity="1" d="M 26.5 22 L 27 27.5 L 26 27.5 L 26.5 22 Z " /><path fill="rgb(241,243,245)" stroke="rgb(241,243,245)" stroke-width="1" opacity="1" d="M 55.5 22 L 56 26.5 L 55 26.5 L 55.5 22 Z " /><path fill="rgb(241,243,245)" stroke="rgb(241,243,245)" stroke-width="1" opacity="1" d="M 28.5 32 L 29.5 34 L 28.5 32 Z " /><path fill="rgb(241,243,245)" stroke="rgb(241,243,245)" stroke-width="1" opacity="1" d="M 53.5 32 L 52.5 34 L 53.5 32 Z " /><path fill="rgb(241,243,245)" stroke="rgb(241,243,245)" stroke-width="1" opacity="1" d="M 49.5 36 L 48.5 38 L 49.5 36 Z " /><path fill="rgb(241,243,245)" stroke="rgb(241,243,245)" stroke-width="1" opacity="1" d="M 39.5 39 L 43 39.5 L 39.5 40 L 39.5 39 Z " /><path fill="rgb(241,243,245)" stroke="rgb(241,243,245)" stroke-width="1" opacity="1" d="M 26.5 45 L 27 88.5 L 26 88.5 L 26.5 45 Z " /><path fill="rgb(241,243,245)" stroke="rgb(241,243,245)" stroke-width="1" opacity="1" d="M 55.5 45 L 56 115.5 L 55 115.5 L 55.5 45 Z " /><path fill="rgb(241,243,245)" stroke="rgb(241,243,245)" stroke-width="1" opacity="1" d="M 81.5 50 L 82.5 52 L 81.5 50 Z " /><path fill="rgb(241,243,245)" stroke="rgb(241,243,245)" stroke-width="1" opacity="1" d="M 87.5 56 L 88.5 58 L 87.5 56 Z " /><path fill="rgb(241,243,245)" stroke="rgb(241,243,245)" stroke-width="1" opacity="1" d="M 93.5 69 L 94 71.5 L 93 71.5 L 93.5 69 Z " /><path fill="rgb(241,243,245)" stroke="rgb(241,243,245)" stroke-width="1" opacity="1" d="M 29.5 98 L 31 100.5 L 29 99.5 L 29.5 98 Z " /><path fill="rgb(241,243,245)" stroke="rgb(241,243,245)" stroke-width="1" opacity="1" d="M 31.5 102 Q 33.8 101.3 33 103.5 L 31.5 102 Z " /><path fill="rgb(241,243,245)" stroke="rgb(241,243,245)" stroke-width="1" opacity="1" d="M 34.5 106 L 37 107.5 L 35.5 108 L 34.5 106 Z " /><path fill="rgb(241,243,245)" stroke="rgb(241,243,245)" stroke-width="1" opacity="1" d="M 41.5 111 L 42.5 113 L 41.5 111 Z " /><path fill="rgb(241,243,245)" stroke="rgb(241,243,245)" stroke-width="1" opacity="1" d="M 51.5 115 L 54 115.5 L 51.5 116 L 51.5 115 Z " /><path fill="rgb(241,243,245)" stroke="rgb(241,243,245)" stroke-width="1" opacity="1" d="M 65.5 115 L 68 115.5 L 65.5 116 L 65.5 115 Z " /><path fill="rgb(241,243,245)" stroke="rgb(241,243,245)" stroke-width="1" opacity="1" d="M 118.5 118 L 117 120.5 L 118 122.5 L 116.5 122 L 115 121.5 L 118.5 118 Z " /><path fill="rgb(241,243,245)" stroke="rgb(241,243,245)" stroke-width="1" opacity="1" d="M 0.5 119 L 4 120.5 L 2 120.5 Q 1.3 122.8 3.5 122 L 3.5 123 Q -2.4 124.6 0.5 119 Z " /><path fill="rgb(19,43,86)" stroke="rgb(19,43,86)" stroke-width="1" opacity="1" d="M 9.5 6 L 37 6.5 L 33.5 8 L 32.5 7 L 9.5 7 L 9.5 8 L 28.5 8 L 30.5 10 L 32.5 9 L 32.5 10 L 30.5 11 L 29 10.5 Q 30.1 13.8 27.5 13 L 23.5 20 L 24 18.5 L 23 16.5 L 25 15.5 L 23 15 L 23 12 Q 26 13 25 10 L 8.5 10 L 8 8.5 L 7.5 7 L 9.5 6 Z " /><path fill="rgb(19,43,86)" stroke="rgb(19,43,86)" stroke-width="1" opacity="1" d="M 48.5 6 L 108 6.5 L 104 7.5 L 110 8 L 110.5 6 L 111.5 8 L 113.5 8 L 116 9.5 L 117 12.5 L 117 59.5 L 116 63.5 L 117 64.5 L 117 79.5 L 116 80.5 L 116 88.5 L 117 89.5 L 117 115.5 L 111.5 120 L 111.5 119 L 114 117.5 L 113 114.5 L 114 113.5 L 114 105.5 Q 111.8 104.2 113 99.5 L 114 95.5 L 113 94.5 L 113 84.5 L 114 80.5 Q 111.8 79.3 113 74.5 L 114 73.5 L 114 65.5 Q 111.8 64.3 113 59.5 L 114 55.5 L 113 54.5 L 113 44.5 L 114 43.5 L 114 14.5 L 113.5 13 L 115 12.5 L 112.5 9 L 110.5 10 L 108.5 9 L 107.5 10 L 93 10 Q 94.6 5.1 89 7 L 88.5 10 L 78 10 Q 79.6 5.1 74 7 L 73.5 10 L 56 10 L 56 13.5 L 57 13.5 Q 56.3 10.9 59 12 L 57.5 16 L 52 12 L 53 9.5 L 45 7.5 L 48.5 6 Z M 60 7 L 60 8 L 63 8 L 60 7 Z M 115 60 L 114 65 L 115 65 L 115 60 Z " /><path fill="rgb(19,43,86)" stroke="rgb(19,43,86)" stroke-width="1" opacity="1" d="M 3.5 12 L 4 114 L 9 114 L 9 116 L 6.5 115 L 5.5 117 Q 10.5 116 9.5 119 L 13.5 119 L 13.5 120 L 8.5 120 Q 9.3 116.8 4 118 L 4 114.5 L 3 113.5 L 3.5 12 Z " /><path fill="rgb(19,43,86)" stroke="rgb(19,43,86)" stroke-width="1" opacity="1" d="M 58.5 17 L 59 21.5 L 58 21.5 L 58.5 17 Z " /><path fill="rgb(19,43,86)" stroke="rgb(19,43,86)" stroke-width="1" opacity="1" d="M 58.5 27 L 59 44 L 63 44.5 L 62 45.5 L 61 64.5 L 62 65.5 L 62 88.5 L 61 89.5 L 61 98.5 L 62 99.5 L 62 114.5 L 59 116.5 Q 61.6 110.6 60 100.5 L 59 99.5 L 59 89.5 L 60 85.5 Q 57.7 84.2 59 79.5 L 60 75.5 L 59 74.5 L 59 54.5 L 60 50.5 Q 57.7 49.3 59 44.5 L 57 41.5 L 57.5 40 Q 55.3 39.3 56 41.5 L 55 41.5 L 54.5 40 Q 53.3 42.3 48.5 41 L 48.5 40 L 52 39.5 L 51.5 38 L 53 37.5 L 52.5 36 L 56.5 39 L 57 37 Q 54 38.3 55 34.5 Q 58.4 32.4 58.5 27 Z " /><path fill="rgb(19,43,86)" stroke="rgb(19,43,86)" stroke-width="1" opacity="1" d="M 22.5 29 L 25 32.5 L 23.5 35 L 23 33.5 Q 25.5 32 22 30.5 L 22.5 29 Z " /><path fill="rgb(19,43,86)" stroke="rgb(19,43,86)" stroke-width="1" opacity="1" d="M 25.5 34 L 28 35 L 29 37.5 L 25.5 34 Z " /><path fill="rgb(19,43,86)" stroke="rgb(19,43,86)" stroke-width="1" opacity="1" d="M 25.5 39 L 26 41.5 L 24.5 45 L 24 42.5 L 25.5 39 Z " /><path fill="rgb(19,43,86)" stroke="rgb(19,43,86)" stroke-width="1" opacity="1" d="M 27 39 L 33 40.5 L 27 41 L 27 39 Z " /><path fill="rgb(19,43,86)" stroke="rgb(19,43,86)" stroke-width="1" opacity="1" d="M 63.5 39 Q 69.7 37.2 71.5 40 L 76 39 Q 74.9 42.3 79 41 L 79 44 L 82.5 44 L 82.5 46 L 85.5 48 L 89 49 L 89 53 L 90.5 53 Q 92.3 56.1 94 54.5 L 93.5 58 L 91 56.5 Q 93.3 55.2 90.5 54 L 87 51.5 L 87.5 50 L 75.5 43 L 72.5 43 L 70.5 44 L 70.5 43 Q 72.8 43.8 72 41.5 Q 70.3 43.1 68.5 40 L 66.5 42 L 65 41.5 L 67 40.5 Q 62.6 40.9 63.5 39 Z " /><path fill="rgb(19,43,86)" stroke="rgb(19,43,86)" stroke-width="1" opacity="1" d="M 85 44 Q 88 43 87 46 Q 84 47 85 44 Z " /><path fill="rgb(19,43,86)" stroke="rgb(19,43,86)" stroke-width="1" opacity="1" d="M 24.5 59 L 25 69.5 L 24 69.5 L 24.5 59 Z " /><path fill="rgb(19,43,86)" stroke="rgb(19,43,86)" stroke-width="1" opacity="1" d="M 93 59 Q 96.8 57.5 96 60.5 L 99 61.5 L 98 64.5 L 99 66.5 L 99 68.5 L 98.5 73 L 96 72 L 97 65.5 L 93 59 Z M 96 62 L 97 64 Q 98 61 96 62 Z " /><path fill="rgb(19,43,86)" stroke="rgb(19,43,86)" stroke-width="1" opacity="1" d="M 97.5 79 L 98 89.5 L 97 89.5 L 97.5 79 Z " /><path fill="rgb(19,43,86)" stroke="rgb(19,43,86)" stroke-width="1" opacity="1" d="M 25.5 94 L 25 95.5 L 26 98.5 Q 24.5 101.5 23 98.5 L 25.5 94 Z " /><path fill="rgb(19,43,86)" stroke="rgb(19,43,86)" stroke-width="1" opacity="1" d="M 98.5 99 L 99 104.5 L 98 104.5 L 98.5 99 Z " /><path fill="rgb(19,43,86)" stroke="rgb(19,43,86)" stroke-width="1" opacity="1" d="M 26.5 100 L 31 107.5 L 30.5 110 L 28 109.5 L 28 104.5 L 26.5 100 Z " /><path fill="rgb(19,43,86)" stroke="rgb(19,43,86)" stroke-width="1" opacity="1" d="M 23 101 Q 26.3 99.9 25 104 Q 21.7 105.1 23 101 Z " /><path fill="rgb(19,43,86)" stroke="rgb(19,43,86)" stroke-width="1" opacity="1" d="M 32.5 109 L 34 112 Q 37 111 36 114 L 39.5 114 L 39.5 115 L 35.5 114 L 33.5 115 L 33.5 114 L 35 113.5 L 33 113 L 32.5 109 Z " /><path fill="rgb(19,43,86)" stroke="rgb(19,43,86)" stroke-width="1" opacity="1" d="M 97.5 109 L 99 119 L 95.5 120 L 94 117.5 L 95.5 117 L 97 117.5 L 98 115.5 Q 95.4 113.9 97.5 109 Z " /><path fill="rgb(19,43,86)" stroke="rgb(19,43,86)" stroke-width="1" opacity="1" d="M 43.5 116 L 46 116.5 L 45.5 118 L 48.5 117 Q 51.5 118.5 48.5 120 L 46.5 119 L 44.5 120 L 42.5 120 L 38 119.5 L 43 119 L 43.5 116 Z " /><path fill="rgb(19,43,86)" stroke="rgb(19,43,86)" stroke-width="1" opacity="1" d="M 57.5 117 L 59.5 119 Q 61.5 115 63.5 119 L 65 119.5 L 57.5 120 L 57.5 117 Z " /><path fill="rgb(19,43,86)" stroke="rgb(19,43,86)" stroke-width="1" opacity="1" d="M 69.5 119 L 82 119.5 L 69.5 120 L 69.5 119 Z " /><path fill="rgb(19,43,86)" stroke="rgb(19,43,86)" stroke-width="1" opacity="1" d="M 84.5 119 L 93 119.5 L 84.5 120 L 84.5 119 Z " /><path fill="rgb(19,43,86)" stroke="rgb(19,43,86)" stroke-width="1" opacity="1" d="M 103.5 119 L 110 119.5 L 103.5 120 L 103.5 119 Z " /><path fill="rgb(161,171,194)" stroke="rgb(161,171,194)" stroke-width="1" opacity="1" d="M 11.5 3 L 109 3.5 L 11.5 4 L 11.5 3 Z " /><path fill="rgb(161,171,194)" stroke="rgb(161,171,194)" stroke-width="1" opacity="1" d="M 30.5 13 L 29.5 15 L 30.5 13 Z " /><path fill="rgb(161,171,194)" stroke="rgb(161,171,194)" stroke-width="1" opacity="1" d="M 25.5 23 L 26 25.5 L 25 25.5 L 25.5 23 Z " /><path fill="rgb(200,204,217)" stroke="rgb(200,204,217)" stroke-width="1" opacity="1" d="M 110.5 3 L 113 3.5 L 110.5 4 L 110.5 3 Z " /><path fill="rgb(200,204,217)" stroke="rgb(200,204,217)" stroke-width="1" opacity="1" d="M 55.5 27 L 56 29.5 L 55 29.5 L 55.5 27 Z " /><path fill="rgb(200,204,217)" stroke="rgb(200,204,217)" stroke-width="1" opacity="1" d="M 29.5 34 L 31.5 37 L 29.5 34 Z " /><path fill="rgb(200,204,217)" stroke="rgb(200,204,217)" stroke-width="1" opacity="1" d="M 52.5 34 L 50.5 37 L 52.5 34 Z " /><path fill="rgb(200,204,217)" stroke="rgb(200,204,217)" stroke-width="1" opacity="1" d="M 27.5 44 L 55 44.5 L 27.5 45 L 27.5 44 Z " /><path fill="rgb(200,204,217)" stroke="rgb(200,204,217)" stroke-width="1" opacity="1" d="M 64.5 46 L 65 115.5 L 64 115.5 L 64.5 46 Z " /><path fill="rgb(200,204,217)" stroke="rgb(200,204,217)" stroke-width="1" opacity="1" d="M 83.5 51 L 84.5 53 L 83.5 51 Z " /><path fill="rgb(200,204,217)" stroke="rgb(200,204,217)" stroke-width="1" opacity="1" d="M 86.5 54 L 87.5 56 L 86.5 54 Z " /><path fill="rgb(200,204,217)" stroke="rgb(200,204,217)" stroke-width="1" opacity="1" d="M 26.5 89 L 27 91.5 L 26 91.5 L 26.5 89 Z " /><path fill="rgb(200,204,217)" stroke="rgb(200,204,217)" stroke-width="1" opacity="1" d="M 32.5 104 L 33.5 106 L 32.5 104 Z " /><path fill="rgb(200,204,217)" stroke="rgb(200,204,217)" stroke-width="1" opacity="1" d="M 36.5 108 L 37.5 110 L 36.5 108 Z " /><path fill="rgb(200,204,217)" stroke="rgb(200,204,217)" stroke-width="1" opacity="1" d="M 4.5 120 L 5.5 122 L 4.5 120 Z " /><path fill="rgb(200,204,217)" stroke="rgb(200,204,217)" stroke-width="1" opacity="1" d="M 7.5 122 L 113 122.5 L 7.5 123 L 7.5 122 Z " /><path fill="rgb(26,51,93)" stroke="rgb(26,51,93)" stroke-width="1" opacity="1" d="M 50.5 11 L 51.5 13 L 50.5 11 Z " /><path fill="rgb(26,51,93)" stroke="rgb(26,51,93)" stroke-width="1" opacity="1" d="M 118.5 12 L 119 113.5 L 118 113.5 L 118.5 12 Z " /><path fill="rgb(26,51,93)" stroke="rgb(26,51,93)" stroke-width="1" opacity="1" d="M 53.5 14 L 54.5 16 L 53.5 14 Z " /><path fill="rgb(26,51,93)" stroke="rgb(26,51,93)" stroke-width="1" opacity="1" d="M 26.5 17 L 26 18.5 L 25.5 20 L 25 18.5 L 26.5 17 Z " /><path fill="rgb(26,51,93)" stroke="rgb(26,51,93)" stroke-width="1" opacity="1" d="M 24.5 23 L 25 26.5 L 24 26.5 L 24.5 23 Z " /><path fill="rgb(26,51,93)" stroke="rgb(26,51,93)" stroke-width="1" opacity="1" d="M 28.5 35 L 29.5 37 L 28.5 35 Z " /><path fill="rgb(26,51,93)" stroke="rgb(26,51,93)" stroke-width="1" opacity="1" d="M 84.5 50 L 88.5 55 L 84.5 50 Z " /><path fill="rgb(26,51,93)" stroke="rgb(26,51,93)" stroke-width="1" opacity="1" d="M 89.5 56 L 90.5 58 L 89.5 56 Z " /><path fill="rgb(26,51,93)" stroke="rgb(26,51,93)" stroke-width="1" opacity="1" d="M 95.5 72 L 96 116.5 L 95 116.5 L 95.5 72 Z " /><path fill="rgb(26,51,93)" stroke="rgb(26,51,93)" stroke-width="1" opacity="1" d="M 57.5 95 L 58 98.5 L 57 98.5 L 57.5 95 Z " /><path fill="rgb(26,51,93)" stroke="rgb(26,51,93)" stroke-width="1" opacity="1" d="M 34.5 108 L 35.5 110 L 34.5 108 Z " /><path fill="rgb(26,51,93)" stroke="rgb(26,51,93)" stroke-width="1" opacity="1" d="M 57.5 110 L 58 113.5 L 57 113.5 L 57.5 110 Z " /><path fill="rgb(26,51,93)" stroke="rgb(26,51,93)" stroke-width="1" opacity="1" d="M 64.5 117 L 94 117.5 L 64.5 118 L 64.5 117 Z " /><path fill="rgb(20,44,86)" stroke="rgb(20,44,86)" stroke-width="1" opacity="1" d="M 108.5 6 L 110 6.5 L 104.5 8 L 104.5 7 L 108.5 6 Z " /><path fill="rgb(20,44,86)" stroke="rgb(20,44,86)" stroke-width="1" opacity="1" d="M 9.5 7 L 32.5 7 L 33 9 L 30.5 10 L 28.5 8 L 9.5 8 L 9.5 7 Z " /><path fill="rgb(20,44,86)" stroke="rgb(20,44,86)" stroke-width="1" opacity="1" d="M 37.5 7 L 38.5 9 L 37.5 7 Z " /><path fill="rgb(20,44,86)" stroke="rgb(20,44,86)" stroke-width="1" opacity="1" d="M 59.5 7 L 63 7.5 L 59.5 8 L 59.5 7 Z " /><path fill="rgb(20,44,86)" stroke="rgb(20,44,86)" stroke-width="1" opacity="1" d="M 74 7 L 78 7 L 78.5 10 L 89 10 Q 87.4 5.1 93 7 L 93.5 10 L 107.5 10 L 109.5 9 L 111.5 10 L 113 9.5 L 115 12.5 L 113 13 L 114 15.5 L 114 43.5 L 113 44.5 L 113 54.5 L 114 58.5 Q 111.8 59.8 113 64.5 L 114 65.5 L 114 73.5 Q 111.8 74.7 113 79.5 L 114 83.5 L 113 84.5 L 113 94.5 L 114 98.5 Q 111.8 99.8 113 104.5 L 114 105.5 L 114 113.5 L 113 119 L 110.5 120 Q 109 117.5 103.5 119 L 98.5 120 L 99 118.5 L 97 108.5 L 97 90.5 L 98 89.5 L 98 79.5 L 97 75 L 99 74.5 L 97.5 72 L 99 72.5 L 98 67.5 L 99 65.5 L 99 63.5 L 98.5 61 Q 97.2 63.3 96 60.5 Q 96.7 57.9 94 59 L 94 54.5 Q 92.3 56.1 90.5 53 L 89 53 L 89 49 L 86.5 49 L 84 48 L 83 44 L 79 44 L 79 41 Q 74.9 42.3 76 39 L 72.5 39 L 70.5 39 L 63 39 Q 65.4 46.1 59 44 L 59 17.5 L 58 15.5 L 59 12 Q 56.3 10.9 57 13.5 L 56 13.5 L 56 10 L 73.5 10 L 74 7 Z M 85 44 Q 84 47 87 46 Q 88 43 85 44 Z M 99 99 L 98 105 L 99 105 L 99 99 Z " /><path fill="rgb(20,44,86)" stroke="rgb(20,44,86)" stroke-width="1" opacity="1" d="M 6.5 9 L 7.5 10 L 25 10 L 26 12.5 L 24.5 12 L 23 12.5 L 23 19.5 L 23 21.5 L 22 30.5 L 23 35 Q 26.8 34.3 28 37.5 L 26.5 40 Q 24.8 37.3 23 41.5 L 23 89.5 L 24 90.5 L 23 93.5 L 23 95.5 L 23 100 Q 26.8 98.5 26 101.5 Q 29.2 104 28 110 L 33 110 Q 31.5 113.8 34.5 113 L 34.5 114 L 33 114.5 L 43 115 Q 45.3 121 38.5 119 L 37.5 120 L 14.5 120 L 9 119 L 8 116.5 L 9 114 L 4 113.5 L 4 10 L 6.5 9 Z M 23 101 Q 22 105 25 104 Q 26 100 23 101 Z " /><path fill="rgb(20,44,86)" stroke="rgb(20,44,86)" stroke-width="1" opacity="1" d="M 57.5 25 L 58 27.5 L 57 27.5 L 57.5 25 Z " /><path fill="rgb(20,44,86)" stroke="rgb(20,44,86)" stroke-width="1" opacity="1" d="M 54.5 37 Q 57.8 35.9 57 38.5 L 55.5 38 L 54.5 37 Z " /><path fill="rgb(20,44,86)" stroke="rgb(20,44,86)" stroke-width="1" opacity="1" d="M 57.5 43 L 58 94.5 L 57 94.5 L 57.5 43 Z " /><path fill="rgb(20,44,86)" stroke="rgb(20,44,86)" stroke-width="1" opacity="1" d="M 24.5 45 L 25 58.5 L 24 58.5 L 24.5 45 Z " /><path fill="rgb(20,44,86)" stroke="rgb(20,44,86)" stroke-width="1" opacity="1" d="M 59.5 50 L 60 53.5 L 59 53.5 L 59.5 50 Z " /><path fill="rgb(20,44,86)" stroke="rgb(20,44,86)" stroke-width="1" opacity="1" d="M 116.5 60 L 117 63.5 L 116 63.5 L 116.5 60 Z " /><path fill="rgb(20,44,86)" stroke="rgb(20,44,86)" stroke-width="1" opacity="1" d="M 24.5 70 L 25 88.5 L 24 88.5 L 24.5 70 Z " /><path fill="rgb(20,44,86)" stroke="rgb(20,44,86)" stroke-width="1" opacity="1" d="M 59.5 75 L 60 78.5 L 59 78.5 L 59.5 75 Z " /><path fill="rgb(20,44,86)" stroke="rgb(20,44,86)" stroke-width="1" opacity="1" d="M 116.5 80 L 117 88.5 L 116 88.5 L 116.5 80 Z " /><path fill="rgb(20,44,86)" stroke="rgb(20,44,86)" stroke-width="1" opacity="1" d="M 59.5 85 L 60 88.5 L 59 88.5 L 59.5 85 Z " /><path fill="rgb(20,44,86)" stroke="rgb(20,44,86)" stroke-width="1" opacity="1" d="M 61.5 95 L 62 98.5 L 61 98.5 L 61.5 95 Z " /><path fill="rgb(20,44,86)" stroke="rgb(20,44,86)" stroke-width="1" opacity="1" d="M 57.5 99 L 58 109.5 L 57 109.5 L 57.5 99 Z " /><path fill="rgb(20,44,86)" stroke="rgb(20,44,86)" stroke-width="1" opacity="1" d="M 59.5 100 L 60 113.5 L 59 113.5 L 59.5 100 Z " /><path fill="rgb(20,44,86)" stroke="rgb(20,44,86)" stroke-width="1" opacity="1" d="M 30.5 104 L 31.5 106 L 30.5 104 Z " /><path fill="rgb(20,44,86)" stroke="rgb(20,44,86)" stroke-width="1" opacity="1" d="M 57.5 114 L 58 117 L 60.5 116 L 61 117.5 L 59.5 119 L 56 117.5 L 57.5 114 Z " /><path fill="rgb(168,177,199)" stroke="rgb(168,177,199)" stroke-width="1" opacity="1" d="M 4.5 5 L 2.5 8 L 4.5 5 Z " /><path fill="rgb(168,177,199)" stroke="rgb(168,177,199)" stroke-width="1" opacity="1" d="M 0.5 12 L 1 111.5 L 0 111.5 L 0.5 12 Z " /><path fill="rgb(22,40,82)" stroke="rgb(22,40,82)" stroke-width="1" opacity="1" d="M 8.5 5 L 37 5.5 L 8.5 6 L 6.5 7 L 6.5 6 L 8.5 5 Z " /><path fill="rgb(22,40,82)" stroke="rgb(22,40,82)" stroke-width="1" opacity="1" d="M 38.5 5 L 111 5.5 L 38.5 6 L 38.5 5 Z " /><path fill="rgb(22,40,82)" stroke="rgb(22,40,82)" stroke-width="1" opacity="1" d="M 112.5 6 L 117 8.5 L 118 10.5 L 118 115.5 L 114.5 120 L 113 119.5 L 116 117.5 L 117 115.5 L 117 10.5 L 116 8 Q 111.8 8 112.5 6 Z " /><path fill="rgb(22,40,82)" stroke="rgb(22,40,82)" stroke-width="1" opacity="1" d="M 4.5 7 L 5 8.5 L 2.5 12 L 2 10.5 L 4.5 7 Z " /><path fill="rgb(22,40,82)" stroke="rgb(22,40,82)" stroke-width="1" opacity="1" d="M 34.5 8 L 35 10 L 28.5 14 L 31.5 10 L 34.5 8 Z " /><path fill="rgb(22,40,82)" stroke="rgb(22,40,82)" stroke-width="1" opacity="1" d="M 44.5 8 Q 51.1 8.9 54 13.5 L 50.5 11 L 44.5 9 L 44.5 8 Z " /><path fill="rgb(22,40,82)" stroke="rgb(22,40,82)" stroke-width="1" opacity="1" d="M 24.5 28 L 27 34.5 L 26 34.5 Q 23 32 24.5 28 Z " /><path fill="rgb(22,40,82)" stroke="rgb(22,40,82)" stroke-width="1" opacity="1" d="M 57.5 28 L 58 30.5 L 54.5 35 L 56 32.5 L 57.5 28 Z " /><path fill="rgb(22,40,82)" stroke="rgb(22,40,82)" stroke-width="1" opacity="1" d="M 31.5 38 L 35 40.5 L 33.5 40 L 31.5 38 Z " /><path fill="rgb(22,40,82)" stroke="rgb(22,40,82)" stroke-width="1" opacity="1" d="M 50.5 38 L 49.5 40 L 50.5 38 Z " /><path fill="rgb(22,40,82)" stroke="rgb(22,40,82)" stroke-width="1" opacity="1" d="M 45.5 40 L 48 40.5 L 45.5 41 L 45.5 40 Z " /><path fill="rgb(22,40,82)" stroke="rgb(22,40,82)" stroke-width="1" opacity="1" d="M 38.5 41 Q 43.9 40.1 46 42.5 L 43.5 43 L 39.5 42 L 38.5 43 L 27.5 43 L 27.5 42 L 37.5 42 L 38.5 41 Z " /><path fill="rgb(22,40,82)" stroke="rgb(22,40,82)" stroke-width="1" opacity="1" d="M 63.5 41 Q 65.8 40.3 65 42.5 L 63.5 41 Z " /><path fill="rgb(22,40,82)" stroke="rgb(22,40,82)" stroke-width="1" opacity="1" d="M 47.5 42 L 55 42.5 L 47.5 43 L 47.5 42 Z " /><path fill="rgb(22,40,82)" stroke="rgb(22,40,82)" stroke-width="1" opacity="1" d="M 62.5 45 L 63 115.5 L 62 115.5 L 62.5 45 Z " /><path fill="rgb(22,40,82)" stroke="rgb(22,40,82)" stroke-width="1" opacity="1" d="M 78.5 45 L 83 47.5 L 81.5 48 L 78.5 45 Z " /><path fill="rgb(22,40,82)" stroke="rgb(22,40,82)" stroke-width="1" opacity="1" d="M 94.5 64 L 96 66.5 L 94 65.5 L 94.5 64 Z " /><path fill="rgb(22,40,82)" stroke="rgb(22,40,82)" stroke-width="1" opacity="1" d="M 95.5 68 L 96 71.5 L 95 71.5 L 95.5 68 Z " /><path fill="rgb(22,40,82)" stroke="rgb(22,40,82)" stroke-width="1" opacity="1" d="M 96.5 73 L 97.5 75 L 96.5 73 Z " /><path fill="rgb(22,40,82)" stroke="rgb(22,40,82)" stroke-width="1" opacity="1" d="M 58.5 74 L 59 79.5 L 58 79.5 L 58.5 74 Z " /><path fill="rgb(22,40,82)" stroke="rgb(22,40,82)" stroke-width="1" opacity="1" d="M 24.5 94 L 28 100.5 L 26 99.5 L 24.5 94 Z " /><path fill="rgb(22,40,82)" stroke="rgb(22,40,82)" stroke-width="1" opacity="1" d="M 28.5 102 L 29.5 104 L 28.5 102 Z " /><path fill="rgb(22,40,82)" stroke="rgb(22,40,82)" stroke-width="1" opacity="1" d="M 30.5 105 L 36.5 112 L 30.5 105 Z " /><path fill="rgb(22,40,82)" stroke="rgb(22,40,82)" stroke-width="1" opacity="1" d="M 49.5 117 L 54 117.5 L 49.5 118 L 49.5 117 Z " /><path fill="rgb(22,40,82)" stroke="rgb(22,40,82)" stroke-width="1" opacity="1" d="M 4.5 118 L 5.5 120 L 4.5 118 Z " /><path fill="rgb(22,40,82)" stroke="rgb(22,40,82)" stroke-width="1" opacity="1" d="M 97.5 119 L 98.5 120 L 112 120.5 L 9.5 121 L 9.5 120 L 96.5 120 L 97.5 119 Z " /></svg>